custom-analysis
version=1
nRows=6
nColumns=98
inDegrees=no

This file contains tibia displacement and acting force.

Units are S.I. units (seconds, meters, Newtons, ...)
Angles are in degrees.

endheader
time	APT	SIT	knee_angle	aACL_R_force	pACL_R_force	aPCL_R_force	pPCL_R_force	aMCL_R_force	mMCL_R_force	pMCL_R_force	aLCL_R_force	mLCL_R_force	pLCL_R_force	aPCL_L_force	pPCL_L_force	aMCL_L_force	aLCL_L_force	aACL_R_length	pACL_R_length	aPCL_R_length	pPCL_R_length	aMCL_R_length	mMCL_R_length	pMCL_R_length	aLCL_R_length	mLCL_R_length	pLCL_R_length	aPCL_L_length	pPCL_L_length	aMCL_L_length	aLCL_L_length	aACL_R_strain	pACL_R_strain	aPCL_R_strain	pPCL_R_strain	aMCL_R_strain	mMCL_R_strain	pMCL_R_strain	aLCL_R_strain	mLCL_R_strain	pLCL_R_strain	aPCL_L_strain	pPCL_L_strain	aMCL_L_strain	aLCL_L_strain	femur_lat_meniscii_r.femur_lat_r.force.X	femur_lat_meniscii_r.femur_lat_r.force.Y	femur_lat_meniscii_r.femur_lat_r.force.Z	femur_lat_meniscii_r.femur_lat_r.torque.X	femur_lat_meniscii_r.femur_lat_r.torque.Y	femur_lat_meniscii_r.femur_lat_r.torque.Z	femur_lat_meniscii_r.meniscus_lat_r.force.X	femur_lat_meniscii_r.meniscus_lat_r.force.Y	femur_lat_meniscii_r.meniscus_lat_r.force.Z	femur_lat_meniscii_r.meniscus_lat_r.torque.X	femur_lat_meniscii_r.meniscus_lat_r.torque.Y	femur_lat_meniscii_r.meniscus_lat_r.torque.Z	femur_med_meniscii_r.femur_med_r.force.X	femur_med_meniscii_r.femur_med_r.force.Y	femur_med_meniscii_r.femur_med_r.force.Z	femur_med_meniscii_r.femur_med_r.torque.X	femur_med_meniscii_r.femur_med_r.torque.Y	femur_med_meniscii_r.femur_med_r.torque.Z	femur_med_meniscii_r.meniscus_med_r.force.X	femur_med_meniscii_r.meniscus_med_r.force.Y	femur_med_meniscii_r.meniscus_med_r.force.Z	femur_med_meniscii_r.meniscus_med_r.torque.X	femur_med_meniscii_r.meniscus_med_r.torque.Y	femur_med_meniscii_r.meniscus_med_r.torque.Z	femur_med_tibia_r.tibia_upper_r.force.X	femur_med_tibia_r.tibia_upper_r.force.Y	femur_med_tibia_r.tibia_upper_r.force.Z	femur_med_tibia_r.tibia_upper_r.torque.X	femur_med_tibia_r.tibia_upper_r.torque.Y	femur_med_tibia_r.tibia_upper_r.torque.Z	femur_med_tibia_r.femur_med_r.force.X	femur_med_tibia_r.femur_med_r.force.Y	femur_med_tibia_r.femur_med_r.force.Z	femur_med_tibia_r.femur_med_r.torque.X	femur_med_tibia_r.femur_med_r.torque.Y	femur_med_tibia_r.femur_med_r.torque.Z	femur_lat_tibia_r.tibia_upper_r.force.X	femur_lat_tibia_r.tibia_upper_r.force.Y	femur_lat_tibia_r.tibia_upper_r.force.Z	femur_lat_tibia_r.tibia_upper_r.torque.X	femur_lat_tibia_r.tibia_upper_r.torque.Y	femur_lat_tibia_r.tibia_upper_r.torque.Z	femur_lat_tibia_r.femur_lat_r.force.X	femur_lat_tibia_r.femur_lat_r.force.Y	femur_lat_tibia_r.femur_lat_r.force.Z	femur_lat_tibia_r.femur_lat_r.torque.X	femur_lat_tibia_r.femur_lat_r.torque.Y	femur_lat_tibia_r.femur_lat_r.torque.Z	femur_lat_meniscii_force_r	femur_med_meniscii_force_r	femur_lat_tibia_force_r	femur_med_tibia_force_r
      0.00000000	      0.00000000	      0.00000000	     20.00008554	     22.16538504	     19.53263151	      0.56117660	     37.10792893	      0.00000000	      0.00000000	      2.06278594	      0.00000000	      0.00000000	      0.00000000	      0.00000000	      0.00000000	      0.00000001	      0.00000000	      0.03269107	      0.02633752	      0.03119002	      0.03044026	      0.05665282	      0.05964574	      0.05970196	      0.05538420	      0.05266237	      0.04958073	      0.01525851	      0.01651186	      0.06550154	      0.04489616	      0.05436345	      0.05103284	      0.00304626	      0.01848442	     -0.05621106	     -0.00247117	      0.01658427	     -0.01059353	     -0.06492051	     -0.05276708	      0.00000079	     -0.32847694	      0.00000060	     -0.00000086	     63.89009026	     93.04530493	      4.38456882	     -4.17015486	      1.63908493	     26.44627124	    -63.89009026	    -93.04530493	     -4.38456882	      2.94558193	     -1.97248809	     -1.52713373	     -2.08901085	     19.17741008	     -0.55505736	      0.60314242	      0.04972786	     -0.57895647	      2.08901085	    -19.17741008	      0.55505736	     -0.29767184	     -0.03667662	     -0.11978637	    -72.76212829	   -191.84319550	     55.90917589	     -4.44275879	      0.91833491	     -2.63834593	     72.76212829	    191.84319550	    -55.90917589	     26.75623922	     -0.97998716	     31.46632873	      0.00000000	      0.00000000	      0.00000000	      0.00000000	      0.00000000	      0.00000000	      0.00000000	      0.00000000	      0.00000000	      0.00000000	      0.00000000	      0.00000000	    112.95395897	     19.29883707	      0.00000000	    212.65929305
      0.00114301	      0.00000108	      0.00001894	     20.00008554	      5.77208444	      1.04232383	     -5.04959725	     21.10136336	      0.00000000	      0.00000000	    -13.35880687	      0.00000000	      0.00000000	      0.00000000	      0.00000000	      0.00000000	      0.00000001	      0.00000000	      0.03266501	      0.02630932	      0.03117962	      0.03042966	      0.05663809	      0.05963075	      0.05968755	      0.05536907	      0.05264736	      0.04956601	      0.01525851	      0.01651186	      0.06550154	      0.04489616	      0.05352294	      0.04990752	      0.00271171	      0.01812976	     -0.05645649	     -0.00272187	      0.01633887	     -0.01086392	     -0.06518695	     -0.05304819	      0.00000079	     -0.32847694	      0.00000060	     -0.00000086	     64.62124569	    102.82494645	     22.12906398	    -11.88078430	      1.74479935	     26.70792950	    -64.62124569	   -102.82494645	    -22.12906398	      3.91521528	     -2.17260125	     -1.45906672	     -1.69094457	     21.79054470	      2.47668448	     -0.63759660	     -0.00679559	     -0.36758843	      1.69094457	    -21.79054470	     -2.47668448	     -0.20423643	      0.00202399	     -0.16518725	    -84.07705651	   -227.98147638	     50.48058885	     -4.61194410	      1.02932292	     -3.05271361	     84.07705651	    227.98147638	    -50.48058885	     25.01743175	     -1.17173654	     36.39554316	      0.00000000	      0.00000000	      0.00000000	      0.00000000	      0.00000000	      0.00000000	      0.00000000	      0.00000000	      0.00000000	      0.00000000	      0.00000000	      0.00000000	    123.44460490	     21.99593366	      0.00000000	    248.17895732
      0.00312261	      0.00000995	      0.00007568	     20.00008554	      0.59828072	     -6.44545574	     -1.24111294	     29.00186226	      0.00000000	      0.00000000	     -3.60566951	      0.00000000	      0.00000000	      0.00000000	      0.00000000	      0.00000000	      0.00000001	      0.00000000	      0.03256937	      0.02620259	      0.03115560	      0.03040548	      0.05660116	      0.05959260	      0.05965215	      0.05532874	      0.05260793	      0.04952795	      0.01525851	      0.01651186	      0.06550154	      0.04489616	      0.05043841	      0.04564851	      0.00193926	      0.01732088	     -0.05707163	     -0.00335990	      0.01573604	     -0.01158437	     -0.06588704	     -0.05377545	      0.00000079	     -0.32847694	      0.00000060	     -0.00000086	     68.83019610	    104.51500263	     37.70147289	    -18.46016381	      1.93488967	     28.46798763	    -68.83019610	   -104.51500263	    -37.70147289	      4.53553828	     -2.45508152	     -1.60424781	     -2.01193282	     26.01665141	      6.27931596	     -2.16731461	     -0.05951184	     -0.44041589	      2.01193282	    -26.01665141	     -6.27931596	     -0.11147781	      0.03611513	     -0.19278574	   -109.01372882	   -310.09390359	     53.22569134	     -5.66576603	      1.31167920	     -4.04396835	    109.01372882	    310.09390359	    -53.22569134	     27.47185030	     -1.54493461	     47.34695640	      0.00000000	      0.00000000	      0.00000000	      0.00000000	      0.00000000	      0.00000000	      0.00000000	      0.00000000	      0.00000000	      0.00000000	      0.00000000	      0.00000000	    130.69958963	     26.83922192	      0.00000000	    332.97927313
      0.00510220	      0.00003293	      0.00009665	     20.00008554	      4.24406971	     -3.93130033	      3.11842910	     41.96666867	      0.00000000	      0.00000000	     10.43114501	      0.00000000	      0.00000000	      0.00000000	      0.00000000	      0.00000000	      0.00000001	      0.00000000	      0.03249087	      0.02610740	      0.03116260	      0.03041379	      0.05660681	      0.05959657	      0.05965995	      0.05532540	      0.05260640	      0.04952818	      0.01525851	      0.01651186	      0.06550154	      0.04489616	      0.04790677	      0.04184991	      0.00216438	      0.01759870	     -0.05697746	     -0.00329345	      0.01586891	     -0.01164410	     -0.06591430	     -0.05377098	      0.00000079	     -0.32847694	      0.00000060	     -0.00000086	     70.81507640	     98.28951431	     42.61571422	    -20.34983641	      1.99982549	     29.31584553	    -70.81507640	    -98.28951431	    -42.61571422	      4.50003358	     -2.54204941	     -1.72743253	     -2.14032550	     27.52756355	      7.77830601	     -2.76781866	     -0.07890272	     -0.47512268	      2.14032550	    -27.52756355	     -7.77830601	     -0.08187341	      0.04789031	     -0.19926224	    -92.40583283	   -258.50600541	     42.33204962	     -4.68469089	      1.12222962	     -3.45731827	     92.40583283	    258.50600541	    -42.33204962	     22.03541058	     -1.31771652	     40.13811168	      0.00000000	      0.00000000	      0.00000000	      0.00000000	      0.00000000	      0.00000000	      0.00000000	      0.00000000	      0.00000000	      0.00000000	      0.00000000	      0.00000000	    128.42002479	     28.68535850	      0.00000000	    277.77004014
      0.00728607	      0.00007300	      0.00010803	     20.00008554	      2.98035057	     -5.68910294	      0.14206803	     35.71377989	      0.00000000	      0.00000000	      6.84073789	      0.00000000	      0.00000000	      0.00000000	      0.00000000	      0.00000000	      0.00000001	      0.00000000	      0.03242120	      0.02601781	      0.03117224	      0.03042586	      0.05662695	      0.05961470	      0.05968273	      0.05532787	      0.05261133	      0.04953504	      0.01525851	      0.01651186	      0.06550154	      0.04489616	      0.04565953	      0.03827467	      0.00247444	      0.01800258	     -0.05664206	     -0.00299025	      0.01625686	     -0.01159999	     -0.06582673	     -0.05364001	      0.00000079	     -0.32847694	      0.00000060	     -0.00000086	     74.68843311	     99.74745738	     42.54698363	    -20.33647652	      2.08810631	     30.92020961	    -74.68843311	    -99.74745738	    -42.54698363	      4.50009251	     -2.63302672	     -1.84296307	     -1.70644278	     29.48833852	      8.10790023	     -2.86119357	     -0.09218267	     -0.26275258	      1.70644278	    -29.48833852	     -8.10790023	     -0.11144643	      0.05707996	     -0.23522091	    -67.54801144	   -182.38587148	     32.74201691	     -3.45897658	      0.83632907	     -2.52700045	     67.54801144	    182.38587148	    -32.74201691	     16.76344360	     -0.95616043	     29.30710826	      0.00000000	      0.00000000	      0.00000000	      0.00000000	      0.00000000	      0.00000000	      0.00000000	      0.00000000	      0.00000000	      0.00000000	      0.00000000	      0.00000000	    131.67445883	     30.63024815	      0.00000000	    197.22925654
      0.00876002	      0.00010366	      0.00012554	     20.00008554	      1.74097213	     -6.99511954	     -1.94255696	     29.90611788	      0.00000000	      0.00000000	      3.27603281	      0.00000000	      0.00000000	      0.00000000	      0.00000000	      0.00000000	      0.00000001	      0.00000000	      0.03237272	      0.02595659	      0.03116665	      0.03042199	      0.05663089	      0.05961732	      0.05968844	      0.05531599	      0.05260107	      0.04952597	      0.01525851	      0.01651186	      0.06550154	      0.04489616	      0.04409600	      0.03583132	      0.00229449	      0.01787314	     -0.05657636	     -0.00294648	      0.01635404	     -0.01181218	     -0.06600892	     -0.05381327	      0.00000079	     -0.32847694	      0.00000060	     -0.00000086	     75.70581289	    100.36782522	     41.77724315	    -20.01552854	      2.10030753	     31.32821746	    -75.70581289	   -100.36782522	    -41.77724315	      4.46454881	     -2.63710643	     -1.85818048	     -1.36170689	     31.33583114	      8.23534806	     -2.87239863	     -0.09975395	     -0.08917670	      1.36170689	    -31.33583114	     -8.23534806	     -0.14466761	      0.06220931	     -0.26683344	    -59.03479151	   -158.91018839	     29.74157194	     -3.08508991	      0.73896684	     -2.21231295	     59.03479151	    158.91018839	    -29.74157194	     15.12170522	     -0.83024899	     25.61636879	      0.00000000	      0.00000000	      0.00000000	      0.00000000	      0.00000000	      0.00000000	      0.00000000	      0.00000000	      0.00000000	      0.00000000	      0.00000000	      0.00000000	    132.47795473	     32.42852936	      0.00000000	    172.11076574
